<svg width="61" height="56" viewBox="0 0 61 56" fill="none" xmlns="http://www.w3.org/2000/svg">
<g id="carbon:ibm-security-services">
<path id="Vector" d="M49.0624 35.0005C47.7993 35.0052 46.5755 35.4126 45.593 36.1555L41.5812 33.9907V31.1802C42.8291 30.7674 43.8809 29.9551 44.5506 28.8869C45.2203 27.8187 45.4649 26.5633 45.241 25.3427C45.0172 24.1221 44.3394 23.0148 43.3275 22.2165C42.3155 21.4183 41.0345 20.9805 39.7109 20.9805C38.3873 20.9805 37.1064 21.4183 36.0944 22.2165C35.0824 23.0148 34.4046 24.1221 34.1808 25.3427C33.957 26.5633 34.2015 27.8187 34.8713 28.8869C35.541 29.9551 36.5927 30.7674 37.8406 31.1802V33.9907L33.8288 36.159C32.8468 35.4148 31.623 35.0061 30.3594 35.0005C29.187 34.993 28.0413 35.3271 27.081 35.9564C26.1207 36.5857 25.3935 37.479 25.0002 38.5124C24.6069 39.5458 24.567 40.6681 24.886 41.7236C25.2051 42.7792 25.8673 43.7157 26.7808 44.4033C27.6943 45.0909 28.8138 45.4955 29.9841 45.5609C31.1544 45.6264 32.3174 45.3495 33.312 44.7687C34.3065 44.1878 35.0832 43.3318 35.5344 42.3193C35.9856 41.3069 36.0889 40.1881 35.83 39.1182L39.7109 37.02L43.5918 39.1165C43.3416 40.1774 43.4496 41.2848 43.9008 42.2858C44.352 43.2868 45.1242 44.1321 46.1108 44.7049C47.0974 45.2778 48.2498 45.5499 49.4087 45.4837C50.5677 45.4176 51.6761 45.0164 52.581 44.3356C53.4858 43.6548 54.1425 42.728 54.4603 41.683C54.7781 40.6381 54.7414 39.5266 54.3552 38.502C53.9691 37.4775 53.2525 36.5903 52.3044 35.9631C51.3563 35.3359 50.2236 34.9995 49.0624 35.0005ZM30.3594 42.0005C29.9895 42.0005 29.6279 41.8978 29.3203 41.7055C29.0127 41.5132 28.773 41.2399 28.6315 40.9202C28.4899 40.6004 28.4529 40.2485 28.525 39.9091C28.5972 39.5696 28.7753 39.2578 29.0369 39.013C29.2985 38.7683 29.6317 38.6016 29.9945 38.5341C30.3573 38.4666 30.7334 38.5012 31.0751 38.6337C31.4169 38.7661 31.709 38.9904 31.9145 39.2782C32.12 39.566 32.2297 39.9043 32.2297 40.2505C32.2297 40.7146 32.0327 41.1597 31.6819 41.4879C31.3312 41.8161 30.8554 42.0005 30.3594 42.0005ZM39.7109 24.5005C40.0808 24.5005 40.4424 24.6031 40.75 24.7954C41.0576 24.9877 41.2973 25.261 41.4389 25.5808C41.5804 25.9005 41.6175 26.2524 41.5453 26.5919C41.4731 26.9313 41.295 27.2432 41.0334 27.4879C40.7719 27.7326 40.4386 27.8993 40.0758 27.9668C39.713 28.0344 39.3369 27.9997 38.9952 27.8673C38.6534 27.7348 38.3613 27.5105 38.1558 27.2227C37.9503 26.9349 37.8406 26.5966 37.8406 26.2505C37.8406 25.7863 38.0377 25.3412 38.3884 25.013C38.7392 24.6848 39.2149 24.5005 39.7109 24.5005ZM49.0624 42.0005C48.6925 42.0005 48.3309 41.8978 48.0234 41.7055C47.7158 41.5132 47.4761 41.2399 47.3345 40.9202C47.193 40.6004 47.1559 40.2485 47.2281 39.9091C47.3002 39.5696 47.4784 39.2578 47.7399 39.013C48.0015 38.7683 48.3348 38.6016 48.6976 38.5341C49.0604 38.4666 49.4364 38.5012 49.7782 38.6337C50.1199 38.7661 50.412 38.9904 50.6176 39.2782C50.8231 39.566 50.9328 39.9043 50.9328 40.2505C50.9328 40.7146 50.7357 41.1597 50.385 41.4879C50.0342 41.8161 49.5585 42.0005 49.0624 42.0005Z" fill="#00B79D"/>
<path id="Vector_2" d="M30.3585 54.2495C24.9039 54.2439 19.6745 52.214 15.8175 48.6051C11.9605 44.9963 9.7911 40.1032 9.78516 34.9995V11.168L30.3342 1.54297L49.8976 10.7077L48.2237 13.8367L30.3342 5.45597L13.5258 13.331V34.9995C13.5254 37.9246 14.3957 40.792 16.039 43.2804C17.6823 45.7687 20.0338 47.7798 22.8298 49.0881C25.6259 50.3964 28.7561 50.9502 31.8697 50.6876C34.9833 50.425 37.9572 49.3563 40.4582 47.6012L42.7025 50.3995C39.1473 52.9091 34.812 54.2612 30.3585 54.2495Z" fill="#00B79D"/>
</g>
</svg>
