<svg width="60" height="56" viewBox="0 0 60 56" fill="none" xmlns="http://www.w3.org/2000/svg">
<g id="icon-park-outline:graphic-stitching">
<g id="Group">
<path id="Vector" fill-rule="evenodd" clip-rule="evenodd" d="M29.9228 27.9993L42.3915 16.3327C42.3915 9.88918 36.8093 4.66602 29.9228 4.66602C23.0363 4.66602 17.4541 9.88918 17.4541 16.3327L29.9228 27.9993Z" stroke="#00B79D" stroke-width="4.66667" stroke-linecap="round" stroke-linejoin="round"/>
<path id="Vector_2" fill-rule="evenodd" clip-rule="evenodd" d="M17.455 39.6654L29.9237 27.9987L17.455 16.332C10.5686 16.332 4.98633 21.5552 4.98633 27.9987C4.98633 34.4422 10.5686 39.6654 17.455 39.6654ZM42.3924 39.6654C49.2789 39.6654 54.8611 34.4422 54.8611 27.9987C54.8611 21.5552 49.2789 16.332 42.3924 16.332L29.9237 27.9987L42.3924 39.6654Z" stroke="#00B79D" stroke-width="4.66667" stroke-linecap="round" stroke-linejoin="round"/>
<path id="Vector_3" fill-rule="evenodd" clip-rule="evenodd" d="M29.9228 51.3333C36.8093 51.3333 42.3915 46.1102 42.3915 39.6667L29.9228 28L17.4541 39.6667C17.4541 46.1102 23.0363 51.3333 29.9228 51.3333Z" stroke="#00B79D" stroke-width="4.66667" stroke-linecap="round" stroke-linejoin="round"/>
</g>
</g>
</svg>
