<svg width="43" height="44" viewBox="0 0 43 44" fill="none" xmlns="http://www.w3.org/2000/svg">
<g id="Group">
<path id="Vector" d="M39.1907 12.4252H36.9045V4.80449C36.9045 2.70335 35.1953 0.994141 33.0942 0.994141H4.13554C2.03441 0.994141 0.325195 2.70335 0.325195 4.80449V38.3355C0.325195 40.4367 2.03441 42.1459 4.13554 42.1459H21.6823C22.3787 43.0658 23.4718 43.67 24.7108 43.67H39.1901C41.2913 43.67 43.0005 41.9608 43.0005 39.8597V16.2355C43.0012 14.1344 41.2919 12.4252 39.1907 12.4252ZM4.13554 40.6218C2.87504 40.6218 1.84933 39.5961 1.84933 38.3355V4.80449C1.84933 3.54398 2.87504 2.51828 4.13554 2.51828H33.0942C34.3547 2.51828 35.3804 3.54398 35.3804 4.80449V12.4252H24.7114C22.6103 12.4252 20.9011 14.1344 20.9011 16.2355V39.8597C20.9011 40.121 20.9276 40.3755 20.978 40.6218H4.13554ZM41.4769 39.8597C41.4769 41.1202 40.4512 42.1459 39.1907 42.1459H24.7114C23.4509 42.1459 22.4252 41.1202 22.4252 39.8597V16.2355C22.4252 14.975 23.4509 13.9493 24.7114 13.9493H36.1407H36.1421H36.1434H39.1903C40.4508 13.9493 41.4765 14.975 41.4765 16.2355L41.4769 39.8597ZM11.7562 4.04242C7.13348 4.04242 3.37347 7.80312 3.37347 12.4252C3.37347 17.0472 7.13418 20.8079 11.7562 20.8079C16.3783 20.8079 20.139 17.0472 20.139 12.4252C20.139 7.80312 16.3783 4.04242 11.7562 4.04242ZM11.7562 19.2838C7.97481 19.2838 4.89761 16.2066 4.89761 12.4252C4.89761 8.64305 7.97481 5.56656 11.7562 5.56656C15.5377 5.56656 18.6149 8.64305 18.6149 12.4252C18.6149 16.2066 15.5377 19.2838 11.7562 19.2838ZM10.9942 10.901C10.9942 11.3209 11.3357 11.6618 11.7549 11.6631C11.7556 11.6631 11.7556 11.6624 11.7562 11.6624C13.0167 11.6624 14.0424 12.6881 14.0424 13.9486C14.0424 14.9407 13.4039 15.7783 12.5183 16.0947V16.9976C12.5183 17.4181 12.1767 17.7597 11.7562 17.7597C11.3357 17.7597 10.9942 17.4181 10.9942 16.9976V16.0937C10.1086 15.7783 9.47003 14.94 9.47003 13.9483C9.47003 13.5278 9.8116 13.1862 10.2321 13.1862C10.6526 13.1862 10.9942 13.5278 10.9942 13.9483C10.9942 14.3688 11.3364 14.7104 11.7562 14.7104C12.1761 14.7104 12.5183 14.3688 12.5183 13.9483C12.5183 13.5292 12.1767 13.1876 11.7576 13.1869C11.7569 13.1872 11.7562 13.1872 11.7562 13.1872C10.4957 13.1872 9.47003 12.1615 9.47003 10.901C9.47003 9.90895 10.1086 9.07137 10.9942 8.75566V7.85276C10.9942 7.43124 11.3357 7.09069 11.7562 7.09069C12.1767 7.09069 12.5183 7.43124 12.5183 7.85276V8.75566C13.4039 9.07103 14.0424 9.9093 14.0424 10.901C14.0424 11.3226 13.7009 11.6631 13.2804 11.6631C12.8599 11.6631 12.5183 11.3226 12.5183 10.901C12.5183 10.4812 12.1761 10.139 11.7562 10.139C11.3364 10.139 10.9942 10.4812 10.9942 10.901ZM21.6631 5.56656C21.6631 5.14504 22.0047 4.80449 22.4252 4.80449H33.0942C33.5147 4.80449 33.8563 5.14504 33.8563 5.56656C33.8563 5.98705 33.5147 6.32863 33.0942 6.32863H22.4252C22.0037 6.32863 21.6631 5.98705 21.6631 5.56656ZM21.6631 9.37691C21.6631 8.95641 22.0047 8.61484 22.4252 8.61484H33.0942C33.5147 8.61484 33.8563 8.95641 33.8563 9.37691C33.8563 9.79842 33.5147 10.139 33.0942 10.139H22.4252C22.0037 10.139 21.6631 9.79842 21.6631 9.37691ZM19.3769 23.8562C19.3769 24.2777 19.0354 24.6183 18.6149 24.6183H4.13554C3.71505 24.6183 3.37347 24.2777 3.37347 23.8562C3.37347 23.4357 3.71505 23.0942 4.13554 23.0942H18.6149C19.0354 23.0942 19.3769 23.4357 19.3769 23.8562ZM19.3769 27.6673C19.3769 28.0878 19.0354 28.4293 18.6149 28.4293H4.13554C3.71505 28.4293 3.37347 28.0878 3.37347 27.6673C3.37347 27.2458 3.71505 26.9052 4.13554 26.9052H18.6149C19.0354 26.9052 19.3769 27.2461 19.3769 27.6673ZM19.3769 30.7149C19.3769 31.1354 19.0354 31.4769 18.6149 31.4769H4.13554C3.71505 31.4769 3.37347 31.1354 3.37347 30.7149C3.37347 30.2933 3.71505 29.9528 4.13554 29.9528H18.6149C19.0354 29.9528 19.3769 30.2933 19.3769 30.7149ZM19.3769 34.5252C19.3769 34.9467 19.0354 35.2873 18.6149 35.2873H4.13554C3.71505 35.2873 3.37347 34.9467 3.37347 34.5252C3.37347 34.1047 3.71505 33.7631 4.13554 33.7631H18.6149C19.0354 33.7631 19.3769 34.1047 19.3769 34.5252ZM19.3769 38.3355C19.3769 38.7571 19.0354 39.0976 18.6149 39.0976H4.13554C3.71505 39.0976 3.37347 38.7571 3.37347 38.3355C3.37347 37.9151 3.71505 37.5735 4.13554 37.5735H18.6149C19.0354 37.5735 19.3769 37.9151 19.3769 38.3355ZM37.6666 15.4735H26.2356C24.9751 15.4735 23.9494 16.4992 23.9494 17.7597V20.8079C23.9494 22.0685 24.9751 23.0942 26.2356 23.0942H37.6666C38.9271 23.0942 39.9528 22.0685 39.9528 20.8079V17.7597C39.9528 16.4992 38.9271 15.4735 37.6666 15.4735ZM38.4287 20.8079C38.4287 21.2278 38.0864 21.57 37.6666 21.57H26.2356C25.8157 21.57 25.4735 21.2278 25.4735 20.8079V17.7597C25.4735 17.3392 25.8157 16.9976 26.2356 16.9976H37.6666C38.0864 16.9976 38.4287 17.3392 38.4287 17.7597V20.8079ZM28.5218 24.6183H26.2356C24.9751 24.6183 23.9494 25.644 23.9494 26.9045V29.1907C23.9494 30.4512 24.9751 31.4769 26.2356 31.4769H28.5218C29.7823 31.4769 30.808 30.4512 30.808 29.1907V26.9045C30.808 25.644 29.7823 24.6183 28.5218 24.6183ZM29.2838 29.1907C29.2838 29.6112 28.9416 29.9528 28.5218 29.9528H26.2356C25.8157 29.9528 25.4735 29.6112 25.4735 29.1907V26.9045C25.4735 26.4847 25.8157 26.1424 26.2356 26.1424H28.5218C28.9416 26.1424 29.2838 26.4847 29.2838 26.9045V29.1907ZM37.6666 24.6183H35.3804C34.1199 24.6183 33.0942 25.644 33.0942 26.9045V29.1907C33.0942 30.4512 34.1199 31.4769 35.3804 31.4769H37.6666C38.9271 31.4769 39.9528 30.4512 39.9528 29.1907V26.9045C39.9528 25.644 38.9271 24.6183 37.6666 24.6183ZM38.4287 29.1907C38.4287 29.6112 38.0864 29.9528 37.6666 29.9528H35.3804C34.9606 29.9528 34.6183 29.6112 34.6183 29.1907V26.9045C34.6183 26.4847 34.9606 26.1424 35.3804 26.1424H37.6666C38.0864 26.1424 38.4287 26.4847 38.4287 26.9045V29.1907ZM28.5218 33.7631H26.2356C24.9751 33.7631 23.9494 34.7888 23.9494 36.0493V38.3355C23.9494 39.5961 24.9751 40.6218 26.2356 40.6218H28.5218C29.7823 40.6218 30.808 39.5961 30.808 38.3355V36.0493C30.808 34.7888 29.7823 33.7631 28.5218 33.7631ZM29.2838 38.3355C29.2838 38.756 28.9416 39.0976 28.5218 39.0976H26.2356C25.8157 39.0976 25.4735 38.756 25.4735 38.3355V36.0493C25.4735 35.6295 25.8157 35.2873 26.2356 35.2873H28.5218C28.9416 35.2873 29.2838 35.6295 29.2838 36.0493V38.3355ZM37.6666 33.7631H35.3804C34.1199 33.7631 33.0942 34.7888 33.0942 36.0493V38.3355C33.0942 39.5961 34.1199 40.6218 35.3804 40.6218H37.6666C38.9271 40.6218 39.9528 39.5961 39.9528 38.3355V36.0493C39.9528 34.7888 38.9271 33.7631 37.6666 33.7631ZM38.4287 38.3355C38.4287 38.756 38.0864 39.0976 37.6666 39.0976H35.3804C34.9606 39.0976 34.6183 38.756 34.6183 38.3355V36.0493C34.6183 35.6295 34.9606 35.2873 35.3804 35.2873H37.6666C38.0864 35.2873 38.4287 35.6295 38.4287 36.0493V38.3355Z" fill="#00B79D"/>
</g>
</svg>
