<svg width="48" height="49" viewBox="0 0 48 49" fill="none" xmlns="http://www.w3.org/2000/svg">
<g id="ant-design:solution-outlined">
<path id="Vector" d="M32.25 12.7996C32.25 12.5904 32.0813 12.4192 31.875 12.4192H13.875C13.6688 12.4192 13.5 12.5904 13.5 12.7996V15.0822C13.5 15.2914 13.6688 15.4626 13.875 15.4626H31.875C32.0813 15.4626 32.25 15.2914 32.25 15.0822V12.7996ZM31.875 19.267H13.875C13.6688 19.267 13.5 19.4382 13.5 19.6474V21.93C13.5 22.1393 13.6688 22.3105 13.875 22.3105H31.875C32.0813 22.3105 32.25 22.1393 32.25 21.93V19.6474C32.25 19.4382 32.0813 19.267 31.875 19.267ZM22.5 26.1148H13.875C13.6688 26.1148 13.5 26.286 13.5 26.4952V28.7779C13.5 28.9871 13.6688 29.1583 13.875 29.1583H22.5C22.7063 29.1583 22.875 28.9871 22.875 28.7779V26.4952C22.875 26.286 22.7063 26.1148 22.5 26.1148ZM20.25 40.7615H9.75V7.28329H36V23.642C36 23.8512 36.1688 24.0224 36.375 24.0224H39C39.2063 24.0224 39.375 23.8512 39.375 23.642V5.38111C39.375 4.5394 38.7047 3.85938 37.875 3.85938H7.875C7.04531 3.85938 6.375 4.5394 6.375 5.38111V42.6637C6.375 43.5054 7.04531 44.1855 7.875 44.1855H20.25C20.4563 44.1855 20.625 44.0143 20.625 43.805V41.142C20.625 40.9327 20.4563 40.7615 20.25 40.7615ZM36.975 37.2235C38.3344 35.9728 39.1875 34.1658 39.1875 32.1542C39.1875 28.3736 36.1641 25.3064 32.4375 25.3064C28.7109 25.3064 25.6875 28.3736 25.6875 32.1542C25.6875 34.1658 26.5406 35.9728 27.9 37.2235C25.2281 38.769 23.3906 41.6318 23.25 44.9321C23.2406 45.1461 23.4141 45.3268 23.625 45.3268H25.8797C26.0766 45.3268 26.2406 45.1698 26.2547 44.9654C26.4375 41.6746 29.1422 39.0496 32.4375 39.0496C35.7328 39.0496 38.4375 41.6746 38.6203 44.9654C38.6297 45.1651 38.7938 45.3268 38.9953 45.3268H41.25C41.4656 45.3268 41.6344 45.1461 41.625 44.9321C41.4891 41.627 39.6469 38.769 36.975 37.2235ZM32.4375 28.3499C34.5094 28.3499 36.1875 30.0523 36.1875 32.1542C36.1875 34.2561 34.5094 35.9586 32.4375 35.9586C30.3656 35.9586 28.6875 34.2561 28.6875 32.1542C28.6875 30.0523 30.3656 28.3499 32.4375 28.3499Z" fill="#00B79D"/>
</g>
</svg>
