<svg width="48" height="50" viewBox="0 0 48 50" fill="none" xmlns="http://www.w3.org/2000/svg">
<g id="carbon:help-desk">
<path id="Vector" d="M40.5 16.057H31.5C30.3069 16.0582 29.163 16.5396 28.3193 17.3954C27.4757 18.2513 27.0012 19.4118 27 20.6222V29.7526C27.0008 30.5596 27.3171 31.3332 27.8796 31.9038C28.442 32.4744 29.2046 32.7953 30 32.7961V43.4483C30.0008 44.2552 30.3171 45.0289 30.8796 45.5995C31.442 46.1701 32.2046 46.491 33 46.4918H39C39.7954 46.491 40.558 46.1701 41.1204 45.5995C41.6829 45.0289 41.9992 44.2552 42 43.4483V32.7961C42.7954 32.7953 43.558 32.4744 44.1204 31.9038C44.6829 31.3332 44.9992 30.5596 45 29.7526V20.6222C44.9988 19.4118 44.5243 18.2513 43.6807 17.3954C42.837 16.5396 41.6931 16.0582 40.5 16.057ZM42 29.7526H39V43.4483H33V29.7526H30V20.6222C30 20.2186 30.158 19.8316 30.4393 19.5462C30.7206 19.2608 31.1022 19.1005 31.5 19.1005H40.5C40.8978 19.1005 41.2794 19.2608 41.5607 19.5462C41.842 19.8316 42 20.2186 42 20.6222V29.7526ZM30 8.44829C30 7.2444 30.3519 6.06755 31.0112 5.06656C31.6705 4.06556 32.6075 3.28538 33.7039 2.82467C34.8003 2.36397 36.0067 2.24342 37.1705 2.47829C38.3344 2.71316 39.4035 3.29288 40.2426 4.14416C41.0818 4.99544 41.6532 6.08003 41.8847 7.26078C42.1162 8.44154 41.9974 9.66542 41.5433 10.7777C41.0892 11.8899 40.3201 12.8406 39.3334 13.5094C38.3467 14.1783 37.1867 14.5352 36 14.5352C34.4092 14.5336 32.884 13.8918 31.7591 12.7506C30.6342 11.6095 30.0016 10.0622 30 8.44829ZM33 8.44829C33 9.05023 33.1759 9.63866 33.5056 10.1392C33.8352 10.6397 34.3038 11.0297 34.8519 11.2601C35.4001 11.4904 36.0033 11.5507 36.5853 11.4333C37.1672 11.3159 37.7018 11.026 38.1213 10.6004C38.5409 10.1747 38.8266 9.63242 38.9424 9.04204C39.0581 8.45166 38.9987 7.83972 38.7716 7.2836C38.5446 6.72748 38.1601 6.25215 37.6667 5.91773C37.1734 5.58331 36.5933 5.40481 36 5.40481C35.2046 5.40562 34.442 5.72653 33.8796 6.29711C33.3171 6.8677 33.0008 7.64136 33 8.44829ZM21 25.1874V20.6222C20.9988 19.4118 20.5243 18.2513 19.6807 17.3954C18.837 16.5396 17.6931 16.0582 16.5 16.057H7.5C6.30689 16.0582 5.16299 16.5396 4.31934 17.3954C3.47568 18.2513 3.00119 19.4118 3 20.6222V25.1874H0V28.2309H24V25.1874H21ZM6 20.6222C6 20.2186 6.15804 19.8316 6.43934 19.5462C6.72064 19.2608 7.10218 19.1005 7.5 19.1005H16.5C16.8978 19.1005 17.2794 19.2608 17.5607 19.5462C17.842 19.8316 18 20.2186 18 20.6222V25.1874H6V20.6222ZM6 8.44829C6 7.2444 6.35189 6.06755 7.01118 5.06656C7.67047 4.06556 8.60754 3.28538 9.7039 2.82467C10.8003 2.36397 12.0067 2.24342 13.1705 2.47829C14.3344 2.71316 15.4035 3.29288 16.2426 4.14416C17.0818 4.99544 17.6532 6.08003 17.8847 7.26078C18.1162 8.44154 17.9974 9.66542 17.5433 10.7777C17.0892 11.8899 16.3201 12.8406 15.3334 13.5094C14.3467 14.1783 13.1867 14.5352 12 14.5352C10.4092 14.5336 8.88399 13.8918 7.75911 12.7506C6.63424 11.6095 6.00159 10.0622 6 8.44829ZM9 8.44829C9 9.05023 9.17595 9.63866 9.50559 10.1392C9.83524 10.6397 10.3038 11.0297 10.8519 11.2601C11.4001 11.4904 12.0033 11.5507 12.5853 11.4333C13.1672 11.3159 13.7018 11.026 14.1213 10.6004C14.5409 10.1747 14.8266 9.63242 14.9424 9.04204C15.0581 8.45166 14.9987 7.83972 14.7716 7.2836C14.5446 6.72748 14.1601 6.25215 13.6667 5.91773C13.1734 5.58331 12.5933 5.40481 12 5.40481C11.2046 5.40562 10.442 5.72653 9.87956 6.29711C9.31712 6.8677 9.00079 7.64136 9 8.44829Z" fill="#00B79D"/>
</g>
</svg>
