<svg width="61" height="56" viewBox="0 0 61 56" fill="none" xmlns="http://www.w3.org/2000/svg">
<g id="mobile">
<g id="vuesax/outline/mobile">
<g id="mobile_2">
<path id="Vector" d="M37.6208 53.0827H22.6583C11.6609 53.0827 8.31934 49.956 8.31934 39.666V16.3327C8.31934 6.04268 11.6609 2.91602 22.6583 2.91602H37.6208C48.6182 2.91602 51.9598 6.04268 51.9598 16.3327V39.666C51.9598 49.956 48.6182 53.0827 37.6208 53.0827ZM22.6583 6.41602C13.7308 6.41602 12.0599 8.00268 12.0599 16.3327V39.666C12.0599 47.996 13.7308 49.5827 22.6583 49.5827H37.6208C46.5484 49.5827 48.2192 47.996 48.2192 39.666V16.3327C48.2192 8.00268 46.5484 6.41602 37.6208 6.41602H22.6583Z" fill="#00B79D"/>
<path id="Vector_2" d="M35.1275 14.584H25.1525C24.1301 14.584 23.2822 13.7907 23.2822 12.834C23.2822 11.8773 24.1301 11.084 25.1525 11.084H35.1275C36.1499 11.084 36.9978 11.8773 36.9978 12.834C36.9978 13.7907 36.1499 14.584 35.1275 14.584Z" fill="#00B79D"/>
<path id="Vector_3" d="M30.1399 46.3408C26.9728 46.3408 24.4043 43.9374 24.4043 40.9741C24.4043 38.0108 26.9728 35.6074 30.1399 35.6074C33.307 35.6074 35.8755 38.0108 35.8755 40.9741C35.8755 43.9374 33.307 46.3408 30.1399 46.3408ZM30.1399 39.0841C29.0427 39.0841 28.1449 39.9241 28.1449 40.9508C28.1449 41.9774 29.0427 42.8174 30.1399 42.8174C31.2371 42.8174 32.1349 41.9774 32.1349 40.9508C32.1349 39.9241 31.2371 39.0841 30.1399 39.0841Z" fill="#00B79D"/>
</g>
</g>
</g>
</svg>
