<svg width="60" height="56" viewBox="0 0 60 56" fill="none" xmlns="http://www.w3.org/2000/svg">
<g id="monitor">
<g id="vuesax/outline/monitor">
<g id="monitor_2">
<path id="Vector" d="M43.7891 41.9293H16.0587C6.13364 41.9293 3.11621 39.106 3.11621 29.8193V15.026C3.11621 5.73935 6.13364 2.91602 16.0587 2.91602H43.7642C53.6893 2.91602 56.7067 5.73935 56.7067 15.026V29.796C56.7316 39.106 53.7142 41.9293 43.7891 41.9293ZM16.0587 6.41602C8.22838 6.41602 6.85682 7.69935 6.85682 15.026V29.796C6.85682 37.1227 8.22838 38.406 16.0587 38.406H43.7642C51.5945 38.406 52.9661 37.1227 52.9661 29.796V15.026C52.9661 7.69935 51.5945 6.41602 43.7642 6.41602H16.0587Z" fill="#00B79D"/>
<path id="Vector_2" d="M29.925 53.083C28.9026 53.083 28.0547 52.2897 28.0547 51.333V40.1797C28.0547 39.223 28.9026 38.4297 29.925 38.4297C30.9474 38.4297 31.7953 39.223 31.7953 40.1797V51.333C31.7953 52.2897 30.9474 53.083 29.925 53.083Z" fill="#00B79D"/>
<path id="Vector_3" d="M54.8613 32.084H4.98652C3.96408 32.084 3.11621 31.2907 3.11621 30.334C3.11621 29.3773 3.96408 28.584 4.98652 28.584H54.8613C55.8837 28.584 56.7316 29.3773 56.7316 30.334C56.7316 31.2907 55.8837 32.084 54.8613 32.084Z" fill="#00B79D"/>
<path id="Vector_4" d="M41.147 53.084H18.7033C17.6809 53.084 16.833 52.2907 16.833 51.334C16.833 50.3773 17.6809 49.584 18.7033 49.584H41.147C42.1694 49.584 43.0173 50.3773 43.0173 51.334C43.0173 52.2907 42.1694 53.084 41.147 53.084Z" fill="#00B79D"/>
</g>
</g>
</g>
</svg>
