<svg width="31" height="31" viewBox="0 0 31 31" fill="none" xmlns="http://www.w3.org/2000/svg">
<g id="plane-svgrepo-com 1" clip-path="url(#clip0_476_38108)">
<g id="XMLID_268_">
<g id="Group">
<g id="Group_2">
<path id="Vector" d="M26.2169 13.5586L18.3291 21.4362L26.6432 30.5422L27.8204 29.3647C29.6273 27.5578 28.6276 25.1569 28.0303 23.7224C27.7071 22.946 27.3483 22.0218 26.9813 21.0409L30.3403 17.6819L26.2169 13.5586ZM26.2443 19.0291C25.997 18.3416 25.7542 17.656 25.5246 16.9998L26.2169 16.3076L27.5914 17.682L26.2443 19.0291Z" fill="white"/>
<path id="Vector_2" d="M17.5067 4.8487L13.3885 0.730469L10.0297 4.08941C9.04864 3.72243 8.12452 3.36361 7.34792 3.0403C5.91349 2.44311 3.51263 1.44344 1.70585 3.25029L0.52832 4.42749L9.62354 12.7319L17.5067 4.8487ZM13.3885 3.47933L14.763 4.85376L14.0706 5.54612C13.4144 5.31644 12.7288 5.07379 12.0414 4.82648L13.3885 3.47933Z" fill="white"/>
<path id="Vector_3" d="M29.1934 1.87605C27.5515 0.234026 24.8796 0.234026 23.2375 1.87605C23.2375 1.87605 7.48205 17.7252 6.60458 18.7878C3.20664 18.6594 1.2888 19.3264 0.901213 20.7732C0.683836 21.5845 1.01 22.4323 1.8705 23.2928C2.18474 23.6071 2.57543 23.928 3.03708 24.2516C2.30493 25.9742 2.31827 27.2297 3.079 27.9905C3.83965 28.7512 5.09525 28.7645 6.81748 28.0327C7.14099 28.4941 7.46177 28.8846 7.77608 29.1989C7.77608 29.1989 7.77614 29.1989 7.77614 29.199C8.63684 30.0597 9.48483 30.3858 10.2965 30.1683C11.7432 29.7807 12.4102 27.8629 12.2817 24.4649C13.3441 23.5877 14.4078 22.6177 15.4491 21.5765L15.4846 21.5306L29.1935 7.83197C30.8356 6.18995 30.8355 3.51813 29.1934 1.87605Z" fill="white"/>
</g>
</g>
</g>
</g>
<defs>
<clipPath id="clip0_476_38108">
<rect width="29.8979" height="29.8979" fill="white" transform="translate(0.53125 0.640625)"/>
</clipPath>
</defs>
</svg>
