<svg width="82" height="139" viewBox="0 0 82 139" fill="none" xmlns="http://www.w3.org/2000/svg">
<g id="Group 1000003436" filter="url(#filter0_d_1139_43021)">
<g id="Layer 3">
<g id="Group">
<path id="Vector" d="M45.051 90.8256L31.6504 81.6858L36.4439 78.4395L49.8446 87.5792L45.051 90.8256Z" fill="#0E4E66"/>
<g id="Group_2">
<path id="Vector_2" d="M41.5352 58.9844L54.9358 68.0992C55.6682 68.6709 56.2537 69.4661 56.6291 70.399C57.0045 71.3319 57.1557 72.3672 57.0663 73.3933C56.9892 76.2345 56.2526 78.9973 54.9358 81.3844C53.7542 83.9741 52.0036 86.1467 49.8653 87.6773L36.4434 78.5375C38.5684 77.0422 40.3178 74.914 41.5139 72.3694C42.8297 69.9818 43.5662 67.2193 43.6443 64.3784C43.7623 63.3376 43.6269 62.2791 43.2537 61.3247C42.8805 60.3703 42.2848 59.559 41.5352 58.9844Z" fill="#0E4E66"/>
<g id="Group_3">
<g id="Group_4">
<path id="Vector_3" d="M49.8653 87.6759L36.4434 78.5361C37.3701 77.9127 38.2225 77.1486 38.9786 76.2637L52.3792 85.4035C51.6208 86.2747 50.7769 87.0375 49.8653 87.6759Z" fill="#0E4E66"/>
<path id="Vector_4" d="M52.3811 85.3005L38.9805 76.1607C39.238 75.8794 39.4799 75.5791 39.7048 75.2617L53.1055 84.3765C52.8711 84.7012 52.6368 85.0008 52.3811 85.3005Z" fill="#0E4E66"/>
<path id="Vector_5" d="M53.1038 84.376L39.7031 75.1862C39.8922 74.9394 40.07 74.681 40.2357 74.4121L53.6364 83.5519C53.4705 83.8127 53.2927 84.0628 53.1038 84.3011" fill="#0E4E66"/>
<path id="Vector_6" d="M53.635 83.6296L40.2344 74.4898C40.4024 74.2592 40.5589 74.0174 40.7031 73.7656L54.1037 82.9054L53.635 83.6296Z" fill="#0E4E66"/>
<path id="Vector_7" d="M54.1057 82.9031L40.7051 73.7633L41.1099 73.0391L54.5105 82.1789L54.1057 82.9031Z" fill="#0E4E66"/>
<path id="Vector_8" d="M54.51 82.1815L41.1094 73.0417C41.2585 72.792 41.3863 72.5173 41.5142 72.2676L54.9148 81.3824L54.51 82.1815Z" fill="#0E4E66"/>
<path id="Vector_9" d="M54.9377 81.3577L41.5371 72.2429L41.8993 71.4688L55.2999 80.6085C55.1934 80.8583 55.0656 81.108 54.9377 81.3577Z" fill="#0E4E66"/>
<path id="Vector_10" d="M55.2977 80.6062L41.9609 71.4664L42.2805 70.7422L55.6811 79.882L55.3616 80.6062" fill="#0E4E66"/>
<path id="Vector_11" d="M55.6174 79.882L42.2168 70.7422L42.4725 70.043L55.8944 79.1828C55.7893 79.4086 55.6968 79.6422 55.6174 79.882Z" fill="#0E4E66"/>
<path id="Vector_12" d="M55.8926 79.1828L42.4707 70.043L42.7264 69.3438L56.127 78.4835C56.127 78.7083 55.9779 78.933 55.8926 79.1828Z" fill="#0E4E66"/>
<path id="Vector_13" d="M56.1252 78.4835L42.7246 69.3438L42.9377 68.6445L56.3383 77.6844C56.3383 77.9092 56.2105 78.1589 56.1252 78.3837" fill="#0E4E66"/>
<path id="Vector_14" d="M56.344 77.6854L42.9434 68.5456L43.1351 67.7715L56.5357 76.9113C56.5357 77.161 56.4079 77.4107 56.344 77.6854Z" fill="#0E4E66"/>
<path id="Vector_15" d="M56.5334 77.0103L43.1328 67.8705L43.3246 67.0215L56.7252 76.1613C56.7252 76.436 56.6187 76.7356 56.5334 77.0103Z" fill="#0E4E66"/>
<path id="Vector_16" d="M56.7248 76.1604L43.3242 67.0206C43.3242 66.6461 43.3242 66.2965 43.4734 65.9219L56.874 75.1865C56.8435 75.556 56.7937 75.923 56.7248 76.2853" fill="#0E4E66"/>
<path id="Vector_17" d="M56.8757 75.1875L43.4751 66.0477C43.5175 65.4995 43.5175 64.9478 43.4751 64.3996C43.5854 63.3843 43.4548 62.3531 43.0977 61.4192C42.7407 60.4853 42.171 59.6847 41.4512 59.1055L54.8518 68.2203C55.5842 68.792 56.1697 69.5872 56.5451 70.5201C56.9205 71.453 57.0717 72.4882 56.9823 73.5144C56.9778 74.0742 56.9422 74.6331 56.8757 75.1875Z" fill="#0E4E66"/>
</g>
</g>
</g>
<g id="Group_5">
<g id="Group_6">
<g id="Group_7">
<path id="Vector_18" d="M40.0255 91.4722L26.6035 82.3574L40.0255 91.4722Z" fill="#007F6D"/>
<path id="Vector_19" d="M40.0684 91.4957L26.6465 82.3809L27.0513 82.6805L40.4519 91.8203C40.3247 91.7606 40.2033 91.6853 40.0897 91.5956" fill="#00826F"/>
<path id="Vector_20" d="M40.4321 91.7215L27.0527 82.6816C27.1645 82.7574 27.2873 82.8082 27.4149 82.8315L40.8155 91.9713L40.4534 91.8214" fill="#008572"/>
<path id="Vector_21" d="M40.7932 91.8714L27.3926 82.6816H27.7548L41.1767 91.8214H40.7932" fill="#008874"/>
<path id="Vector_22" d="M41.1758 91.9718L27.7539 82.832H28.1587L41.5593 91.9468H41.1758" fill="#008A77"/>
<path id="Vector_23" d="M41.5608 92.023L28.1602 82.9082H28.5862L41.9656 92.023H41.5395" fill="#008D79"/>
<path id="Vector_24" d="M41.9633 92.023L28.584 82.9082H29.074L42.4746 92.048H41.9846" fill="#00907C"/>
<path id="Vector_25" d="M42.4757 91.9713L29.1816 82.8315L29.6716 82.6816L43.0723 91.7965C42.8783 91.8702 42.6784 91.9204 42.4757 91.9463" fill="#00937E"/>
<path id="Vector_26" d="M43.0725 91.8234L29.6719 82.6836C29.9554 82.5896 30.233 82.4728 30.5028 82.334L43.9247 91.4738C43.6461 91.6008 43.3616 91.7092 43.0725 91.7984" fill="#009681"/>
<path id="Vector_27" d="M43.9239 91.4976L30.502 82.3578C30.8998 82.1685 31.2844 81.943 31.6524 81.6836L45.053 90.8234C44.6923 91.0825 44.3148 91.3079 43.9239 91.4976Z" fill="#009983"/>
</g>
</g>
</g>
<g id="Group_8">
<g id="Group_9">
<g id="Group_10">
<path id="Vector_28" d="M49.758 49.6943L36.3574 40.5545C37.3924 39.8456 38.4672 39.2199 39.5744 38.6816L52.9751 47.7215C51.8678 48.2598 50.793 48.8855 49.758 49.5945" fill="#009983"/>
<path id="Vector_29" d="M52.9768 47.7213L39.5762 38.5815C40.3584 38.2501 41.1549 37.9667 41.9623 37.7324L55.3629 46.8722C54.5265 47.1344 53.7076 47.4683 52.9129 47.8711" fill="#009681"/>
<path id="Vector_30" d="M55.4235 46.8226L41.959 37.7327L43.7699 37.2832L57.1705 46.423C56.5593 46.5274 55.9545 46.6776 55.3596 46.8725" fill="#00937E"/>
<path id="Vector_31" d="M57.2346 46.3721L43.834 37.2323L44.7714 37.1074H45.4957L59.0029 46.1723H58.2998L57.3411 46.2972" fill="#00907C"/>
<path id="Vector_32" d="M59.0041 46.1734L45.6035 37.0586H47.1161L60.5168 46.1984C60.0268 46.1984 59.5155 46.1984 59.0041 46.1984" fill="#008D79"/>
<path id="Vector_33" d="M60.4104 46.1984L47.0098 37.0586C47.4572 37.0586 47.9046 37.0586 48.352 37.2584L61.7526 46.3732C61.3052 46.3732 60.8578 46.2234 60.4104 46.1984Z" fill="#008A77"/>
<path id="Vector_34" d="M61.7522 46.3726L48.3516 37.2578C48.7682 37.3395 49.1807 37.4479 49.5872 37.5824L62.9879 46.7222C62.5817 46.5793 62.1692 46.4626 61.7522 46.3726Z" fill="#008874"/>
<path id="Vector_35" d="M62.9885 46.7238L49.5879 37.584C49.9863 37.7242 50.3775 37.891 50.7596 38.0834L64.1603 47.1983C63.7777 47.0141 63.3865 46.8557 62.9885 46.7238Z" fill="#008572"/>
<path id="Vector_36" d="M64.1604 47.1969L50.7598 38.082C51.066 38.228 51.3648 38.3948 51.6546 38.5815H51.825L65.2256 47.7213H65.0552L64.1604 47.2218" fill="#00826F"/>
<path id="Vector_37" d="M65.2229 47.7218L51.8223 38.582H51.9501L65.3933 47.8966H65.2655" fill="#007F6D"/>
</g>
</g>
</g>
<path id="Vector_38" d="M44.9651 52.9409L31.5645 43.8011L36.358 40.5547L49.7586 49.6945L44.9651 52.9409Z" fill="#00A18B"/>
<g id="Group_11">
<g id="Group_12">
<g id="Group_13">
<path id="Vector_39" d="M29.6676 111.849L16.267 102.659C14.3152 101.292 12.7627 99.2628 11.8143 96.8404C10.602 93.7066 10.012 90.2913 10.0886 86.8516L23.4893 95.9664C23.4163 99.4058 24.0062 102.82 25.215 105.955C26.1596 108.394 27.7119 110.439 29.6676 111.824" fill="#007060"/>
</g>
</g>
</g>
<path id="Vector_40" d="M23.4924 96.0441L10.0918 86.9293L24.579 77.1152L37.9796 86.255L23.4924 96.0441Z" fill="#00A18B"/>
<g id="Group_14">
<g id="Group_15">
<g id="Group_16">
<path id="Vector_41" d="M56.8768 36.6356L43.4762 27.4958C43.5656 26.4908 43.4134 25.4765 43.037 24.5675C42.6605 23.6585 42.0747 22.8909 41.3457 22.3516L54.7463 31.4664C55.4753 32.0119 56.0605 32.7842 56.4368 33.697C56.813 34.6098 56.9653 35.6272 56.8768 36.6356Z" fill="#007060"/>
</g>
</g>
</g>
<g id="Group_17">
<g id="Group_18">
<g id="Group_19">
<path id="Vector_42" d="M39.4065 53.9683L26.0059 44.8535L39.4278 53.9933" fill="#007F6D"/>
<path id="Vector_43" d="M39.4512 53.9933L26.0293 44.8535C26.1104 44.9281 26.2052 44.9794 26.3063 45.0033L39.7069 54.1431L39.4512 53.9933Z" fill="#00826F"/>
<path id="Vector_44" d="M39.7053 54.1457L26.3047 45.0059H26.5177L39.9184 54.1457H39.7053Z" fill="#008572"/>
<path id="Vector_45" d="M40.0022 54.2665L26.6016 45.2266H27.049L40.4496 54.3664H40.0661" fill="#008874"/>
<path id="Vector_46" d="M40.3875 54.3664L27.0508 45.2266C27.1855 45.2386 27.3208 45.2386 27.4556 45.2266L40.8775 54.3414H40.4514" fill="#008A77"/>
<path id="Vector_47" d="M40.8106 54.4163L27.3887 45.2266H27.8574L41.2793 54.3664H40.8106" fill="#008D79"/>
<path id="Vector_48" d="M41.2813 54.4413L27.8594 45.2266C28.0434 45.2511 28.2292 45.2511 28.4133 45.2266L41.8139 54.3664H41.2813" fill="#00907C"/>
<path id="Vector_49" d="M41.8127 54.3693L28.4121 45.2295C28.6717 45.1981 28.9284 45.1396 29.1791 45.0547L42.5797 54.1945L41.898 54.3693" fill="#00937E"/>
<path id="Vector_50" d="M42.4971 54.1917L29.1816 45.0519C29.5236 44.9486 29.8583 44.8151 30.183 44.6523L43.5836 53.7921C43.2589 53.9549 42.9242 54.0884 42.5823 54.1917" fill="#009681"/>
<path id="Vector_51" d="M43.4983 53.7935L30.0977 44.6537C30.604 44.4114 31.0952 44.1277 31.5677 43.8047L44.9683 52.9445C44.4914 53.2576 44.0007 53.541 43.4983 53.7935Z" fill="#009983"/>
</g>
</g>
</g>
<g id="Group_20">
<path id="Vector_52" d="M51.8471 1.9989L65.2478 11.1137L64.9708 10.9389C62.8538 9.68044 60.4709 9.16865 58.1107 9.46556C55.0913 9.89627 52.1855 11.0798 49.5889 12.9367L36.2734 3.79689C38.8667 1.93595 41.7748 0.759934 44.7953 0.350741C47.1606 0.0323883 49.5536 0.536061 51.6767 1.79912L51.8471 1.9989Z" fill="#0E4E66"/>
<g id="Group_21">
<g id="Group_22">
<path id="Vector_53" d="M49.6741 12.9326L36.2734 3.79283C37.3084 3.0839 38.3832 2.45816 39.4904 1.91992L52.8911 11.0597C51.7838 11.598 50.709 12.2237 49.6741 12.9326Z" fill="#0E4E66"/>
<path id="Vector_54" d="M52.8928 11.0625L39.4922 1.92271C40.298 1.53158 41.1233 1.19801 41.9635 0.923828L55.3855 10.0636C54.5351 10.3255 53.702 10.6593 52.8928 11.0625Z" fill="#0E4E66"/>
<path id="Vector_55" d="M55.3829 10.0619L41.9609 0.922154C42.563 0.727111 43.1749 0.576977 43.7931 0.472656L57.1938 9.58748C56.5972 9.58748 55.9794 9.86217 55.3616 10.0619" fill="#0E4E66"/>
<path id="Vector_56" d="M57.2151 9.58748L43.8145 0.472656H44.6879H45.3484L58.749 9.58748H58.1099H57.2151Z" fill="#0E4E66"/>
<path id="Vector_57" d="M58.7483 9.41323L45.3477 0.273438H46.9029L60.3035 9.41323C59.7856 9.37561 59.2662 9.37561 58.7483 9.41323Z" fill="#0E4E66"/>
<path id="Vector_58" d="M60.3069 9.4382L46.9062 0.273438C47.375 0.273438 47.8223 0.273438 48.2697 0.473214L61.6704 9.58804C61.2187 9.50244 60.7636 9.44409 60.3069 9.41323" fill="#0E4E66"/>
<path id="Vector_59" d="M61.667 9.61287L48.3516 0.498047C48.7752 0.579717 49.1948 0.688086 49.6085 0.822684L63.0092 9.96248C62.5958 9.81956 62.1762 9.70285 61.7522 9.61287" fill="#0E4E66"/>
<path id="Vector_60" d="M62.926 9.96206L49.5254 0.822266C49.9167 0.962702 50.3009 1.12946 50.6758 1.32171L64.0978 10.4365C63.7152 10.2524 63.324 10.0939 62.926 9.96206Z" fill="#0E4E66"/>
<path id="Vector_61" d="M64.0977 10.4351L50.6758 1.32031L51.5706 1.79478L51.741 1.91964L65.1416 11.0345H64.9712L64.0977 10.535" fill="#0E4E66"/>
<path id="Vector_62" d="M65.1389 11.0347L51.7383 1.91992H51.8448L65.2454 11.0347H65.1389Z" fill="#0E4E66"/>
</g>
</g>
</g>
<path id="Vector_63" d="M44.8829 16.1811L31.4609 7.0413L36.2758 3.79492L49.6764 12.9347L44.8829 16.1811Z" fill="#0E4E66"/>
<g id="Group_23">
<path id="Vector_64" d="M29.1799 74.1673L15.7579 65.0525C14.075 63.8474 12.7106 62.1184 11.8166 60.0581C10.5542 56.9938 9.93337 53.6208 10.0057 50.2191C10.0361 46.064 10.6036 41.9384 11.6887 37.9827C12.799 33.7187 14.329 29.6206 16.2479 25.7714C18.1788 21.9185 20.4651 18.3259 23.0654 15.0583C25.5186 11.9462 28.3464 9.27094 31.4595 7.11719L44.8814 16.257C41.7294 18.3993 38.859 21.0657 36.3595 24.1731C33.7608 27.4454 31.4813 31.0469 29.5633 34.9112C27.6386 38.7602 26.1015 42.8581 24.9828 47.1225C23.8977 51.0782 23.3302 55.2038 23.2998 59.3589C23.2084 62.7438 23.7996 66.1062 25.0254 69.1729C25.9614 71.2801 27.4064 73.0173 29.1799 74.1673Z" fill="#0E4E66"/>
<g id="Group_24">
<g id="Group_25">
<path id="Vector_65" d="M29.1799 74.1667L15.7579 65.0519C14.075 63.8468 12.7106 62.1178 11.8166 60.0575C10.5542 56.9932 9.93337 53.6203 10.0057 50.2185C10.0072 48.6156 10.0926 47.0144 10.2613 45.4238L23.6833 54.5636C23.4972 56.1525 23.4047 57.7545 23.4063 59.3583C23.3149 62.7432 23.9061 66.1056 25.132 69.1723C26.0164 71.2485 27.3921 72.9824 29.0946 74.1667" fill="#0E4E66"/>
<path id="Vector_66" d="M23.6817 54.4865L10.2598 45.3467C10.3876 44.2479 10.558 43.1491 10.7498 42.0254L24.1717 51.1402C23.9587 52.2449 23.7951 53.3618 23.6817 54.4865Z" fill="#0E4E66"/>
<path id="Vector_67" d="M24.1719 51.1395L10.75 42.0247C10.9204 41.1257 11.1122 40.2017 11.3252 39.3027L24.7259 48.4176C24.5128 49.3415 24.3211 50.2405 24.1719 51.1395Z" fill="#0E4E66"/>
<path id="Vector_68" d="M24.7268 48.4201L11.3262 39.3052C11.4327 38.8308 11.5605 38.3813 11.6884 37.9068C11.8162 37.4323 11.9014 37.0827 12.0292 36.6582L25.4299 45.798C25.302 46.2225 25.1955 46.6221 25.089 47.0466C24.9825 47.4711 24.8546 47.9706 24.7268 48.4201Z" fill="#0E4E66"/>
<path id="Vector_69" d="M25.4269 45.7972L12.1328 36.6574C12.3672 35.8333 12.6228 34.9842 12.8998 34.1602L26.1939 43.275C25.9169 44.124 25.6613 44.9481 25.4269 45.7722" fill="#0E4E66"/>
<path id="Vector_70" d="M26.1975 43.276L12.7969 34.1611C13.0312 33.387 13.3082 32.6378 13.5851 31.8887L27.0497 41.0285C26.7727 41.7776 26.5171 42.5268 26.2614 43.276" fill="#0E4E66"/>
<path id="Vector_71" d="M27.0485 41.028L13.584 31.8883C13.8396 31.1641 14.1166 30.4648 14.4149 29.7656L27.8155 38.8804C27.5172 39.6046 27.2403 40.3039 26.9846 41.028" fill="#0E4E66"/>
<path id="Vector_72" d="M27.8147 38.8813L14.4141 29.7665C14.691 29.0672 14.9893 28.393 15.2876 27.7188L28.7095 36.8336C28.3899 37.5078 28.0917 38.207 27.8147 38.8813Z" fill="#0E4E66"/>
<path id="Vector_73" d="M28.709 36.8333L15.2871 27.7434L16.2458 25.7207L29.6465 34.8605C29.3056 35.5098 28.986 36.184 28.6877 36.8583" fill="#0E4E66"/>
<path id="Vector_74" d="M29.6682 34.811L16.2676 25.6712C16.6085 24.9969 16.9493 24.3227 17.3115 23.6484L30.7334 32.7383C30.3713 33.4125 30.0091 34.0868 29.6682 34.761" fill="#0E4E66"/>
<path id="Vector_75" d="M30.7344 32.739L17.3125 23.6491L18.5269 21.4766L31.9275 30.6164C31.5014 31.3405 31.0753 32.0398 30.6918 32.7889" fill="#0E4E66"/>
<path id="Vector_76" d="M31.9725 30.615L18.5293 21.4752C18.9767 20.701 19.4667 19.9519 19.9567 19.1777L33.4426 28.3175C32.9312 29.0667 32.4625 29.8408 31.9938 30.615" fill="#0E4E66"/>
<path id="Vector_77" d="M33.4393 28.3167L19.9961 19.1769C20.5926 18.3029 21.1892 17.4538 21.8283 16.6797L35.2289 25.7945C34.5898 26.6436 33.9933 27.5176 33.418 28.2917" fill="#0E4E66"/>
<path id="Vector_78" d="M35.2288 25.7193L21.8281 16.6045C22.2329 16.0551 22.6377 15.5057 23.0638 14.9813C23.4899 14.4569 23.8095 14.0823 24.1716 13.6328L37.7001 22.7476L36.571 24.0712L35.3353 25.6943" fill="#0E4E66"/>
<path id="Vector_79" d="M37.7003 22.7485L24.1719 13.6337C26.3493 11.0789 28.7982 8.86321 31.4581 7.04102L44.88 16.1808C42.2515 17.9916 39.8375 20.1997 37.7003 22.7485Z" fill="#0E4E66"/>
</g>
</g>
</g>
<path id="Vector_80" d="M49.6765 12.938C52.2731 11.0812 55.1789 9.89762 58.1983 9.46691C60.5585 9.17 62.9414 9.68179 65.0584 10.9403C67.0893 12.3021 68.7002 14.3826 69.6602 16.8836C70.887 20.0119 71.4778 23.4312 71.3859 26.8725L56.8774 36.6366C56.9751 35.6235 56.827 34.5988 56.4502 33.68C56.0733 32.7612 55.483 31.9856 54.747 31.4424C53.9241 31.012 53.018 30.8476 52.1227 30.9661C51.2273 31.0847 50.3753 31.4819 49.6552 32.1166L44.8616 35.363C42.7445 36.8539 41.008 38.9842 39.8337 41.5311C38.5816 43.9255 37.8908 46.6648 37.8311 49.4722C37.8311 52.1443 38.5128 53.7425 39.855 54.2419C40.7276 54.4419 41.626 54.4299 42.4945 54.2065C43.363 53.9831 44.1832 53.5532 44.9042 52.9434L49.6978 49.697C52.2815 47.8127 55.1943 46.6348 58.2196 46.2508C60.5781 45.933 62.9641 46.4368 65.0797 47.6992C67.0897 49.0613 68.69 51.1203 69.6602 53.5926C70.8704 56.7272 71.4603 60.142 71.3859 63.5815C71.3554 67.7365 70.788 71.8621 69.7028 75.8178C68.5654 80.0901 67.0143 84.1957 65.0797 88.0542C63.1362 91.9114 60.8434 95.5115 58.2409 98.7922C55.7817 101.914 52.9467 104.597 49.8256 106.758L45.096 110.154C42.5396 112.006 39.6663 113.175 36.6806 113.576C34.3259 113.925 31.9367 113.41 29.8418 112.102C27.8073 110.716 26.1915 108.621 25.2187 106.109C24.0099 102.974 23.4201 99.5595 23.493 96.1201L37.9802 86.3311C37.8884 87.3469 38.039 88.3727 38.4152 89.2941C38.7913 90.2156 39.3783 90.9966 40.1107 91.5502C40.9193 91.991 41.8156 92.1635 42.702 92.049C43.5885 91.9346 44.4312 91.5375 45.1386 90.901L49.8682 87.6796C51.9875 86.1729 53.7294 84.0364 54.9174 81.4865C56.2342 79.0994 56.9708 76.3366 57.0479 73.4954C57.1486 72.4644 57.0027 71.4209 56.6265 70.4816C56.2502 69.5422 55.6585 68.7441 54.9174 68.1764C54.0946 67.746 53.1885 67.5815 52.2931 67.7001C51.3978 67.8187 50.5458 68.2159 49.8256 68.8506L45.032 72.1219C42.459 73.9699 39.5986 75.2007 36.6167 75.7429C34.2987 76.1901 31.9197 75.8252 29.7779 74.6941C27.7642 73.5071 26.1397 71.5766 25.1548 69.2002C23.9289 66.1335 23.3377 62.7711 23.4291 59.3862C23.4596 55.2312 24.0271 51.1055 25.1122 47.1498C26.2308 42.8854 27.7679 38.7875 29.6927 34.9385C31.6106 31.0743 33.8901 27.4727 36.4889 24.2005C38.9883 21.093 41.8588 18.4266 45.0107 16.2843L49.6765 12.938Z" fill="#009580"/>
</g>
</g>
</g>
<defs>
<filter id="filter0_d_1139_43021" x="0" y="0.257812" width="81.3955" height="138.424" filterUnits="userSpaceOnUse" color-interpolation-filters="sRGB">
<feFlood flood-opacity="0" result="BackgroundImageFix"/>
<feColorMatrix in="SourceAlpha" type="matrix" values="0 0 0 0 0 0 0 0 0 0 0 0 0 0 0 0 0 0 127 0" result="hardAlpha"/>
<feOffset dy="15"/>
<feGaussianBlur stdDeviation="5"/>
<feComposite in2="hardAlpha" operator="out"/>
<feColorMatrix type="matrix" values="0 0 0 0 0 0 0 0 0 0 0 0 0 0 0 0 0 0 0.15 0"/>
<feBlend mode="normal" in2="BackgroundImageFix" result="effect1_dropShadow_1139_43021"/>
<feBlend mode="normal" in="SourceGraphic" in2="effect1_dropShadow_1139_43021" result="shape"/>
</filter>
</defs>
</svg>
