<svg width="61" height="56" viewBox="0 0 61 56" fill="none" xmlns="http://www.w3.org/2000/svg">
<g id="u:megaphone">
<path id="Vector" d="M50.2862 4.67188C49.9586 4.6717 49.6343 4.73193 49.3316 4.84913C49.029 4.96633 48.754 5.1382 48.5224 5.3549C48.2908 5.57161 48.1071 5.8289 47.9819 6.11207C47.8566 6.39525 47.7922 6.69874 47.7924 7.00521V8.49089C45.6892 10.9309 43.031 12.9013 40.0113 14.2589C36.9916 15.6164 33.6864 16.3269 30.3362 16.3385H15.3738C13.3903 16.3406 11.4887 17.0787 10.0862 18.391C8.68364 19.7033 7.89474 21.4826 7.89258 23.3385V28.0052C7.89474 29.8611 8.68364 31.6404 10.0862 32.9527C11.4887 34.265 13.3903 35.0032 15.3738 35.0052H16.5802L10.5885 48.0868C10.4256 48.4416 10.3595 48.8287 10.3961 49.2133C10.4326 49.5979 10.5707 49.968 10.7979 50.2904C11.025 50.6128 11.3342 50.8773 11.6977 51.0602C12.0611 51.2432 12.4674 51.3388 12.8801 51.3385H22.855C23.3432 51.3388 23.8207 51.2048 24.2281 50.9532C24.6355 50.7017 24.9549 50.3436 25.1466 49.9235L31.939 35.0939C35.0079 35.3047 37.998 36.1019 40.7247 37.4364C43.4514 38.7708 45.8568 40.6141 47.7924 42.8524V44.3385C47.7924 44.9574 48.0551 45.5509 48.5228 45.9885C48.9905 46.426 49.6248 46.6719 50.2862 46.6719C50.9475 46.6719 51.5818 46.426 52.0495 45.9885C52.5172 45.5509 52.7799 44.9574 52.7799 44.3385V7.00521C52.7801 6.69874 52.7157 6.39524 52.5905 6.11207C52.4652 5.8289 52.2815 5.5716 52.0499 5.3549C51.8183 5.13819 51.5433 4.96633 51.2407 4.84913C50.9381 4.73193 50.6137 4.6717 50.2862 4.67188ZM15.3738 30.3385C14.7126 30.3381 14.0785 30.0922 13.6109 29.6547C13.1434 29.2172 12.8805 28.6239 12.8801 28.0052V23.3385C12.8805 22.7198 13.1434 22.1266 13.611 21.6891C14.0785 21.2516 14.7126 21.0056 15.3738 21.0052H17.8675V30.3385H15.3738ZM21.2112 46.6719H16.6621L22.0051 35.0052H26.5542L21.2112 46.6719ZM47.7924 36.2227C42.8754 32.4325 36.7069 30.3532 30.3362 30.3384H22.855V21.0051H30.3362C36.707 20.9899 42.8755 18.9101 47.7924 15.1196V36.2227Z" fill="#00B79D"/>
</g>
</svg>
